<svg width="95" height="31" viewBox="0 0 95 31" fill="none" xmlns="http://www.w3.org/2000/svg">
<g clip-path="url(#clip0_1_38)">
<path fill-rule="evenodd" clip-rule="evenodd" d="M45.4174 0V15.3314C45.4174 20.3594 41.1361 24.4355 35.8547 24.4355C30.5734 24.4355 26.2923 20.3594 26.2923 15.3314L26.2923 0L24.5161 0L24.5161 19.4028C24.5161 25.8078 29.5926 31 35.8547 31C42.117 31 47.1935 25.8078 47.1935 19.4028V0L45.4174 0Z" fill="#0600FF"/>
<path fill-rule="evenodd" clip-rule="evenodd" d="M55.5271 5.78197L71.7097 5.78197V0L54.466 0C52.4807 0 50.871 1.58651 50.871 3.54332L50.871 31H52.759V18.1067L64.7855 18.1067V12.3249L52.759 12.3249V8.51016C52.759 7.00338 53.9983 5.78197 55.5271 5.78197" fill="#0600FF"/>
<path fill-rule="evenodd" clip-rule="evenodd" d="M78.8175 5.78197L95 5.78197V0L77.7564 0C75.7711 0 74.1613 1.58651 74.1613 3.54332L74.1613 31H76.0493L76.0493 18.1067L88.0758 18.1067V12.3249L76.0493 12.3249V8.51016C76.0493 7.00338 77.2886 5.78197 78.8175 5.78197" fill="#0600FF"/>
<path fill-rule="evenodd" clip-rule="evenodd" d="M14.2193 25.4886L1.83057 25.4886L1.83057 18.1142L14.2193 18.1142C17.8977 18.1142 19.7581 19.7651 19.7581 21.8014C19.7581 23.8379 17.8977 25.4886 14.2193 25.4886V25.4886ZM1.83057 4.66846L12.5109 4.66846C16.1892 4.66846 18.0497 6.3193 18.0497 8.35565C18.0497 10.392 16.1892 12.0428 12.5109 12.0428L1.83057 12.0428L1.83057 4.66846ZM17.2683 14.0185C18.6197 12.5296 19.4459 10.5411 19.4459 8.35565C19.4459 3.74096 15.7652 0 11.2248 0L0 0L0 12.5646L0 16.7115L0 31L12.3825 31C17.3913 31 21.4516 26.8732 21.4516 21.7823C21.4516 18.5207 19.7834 15.6571 17.2683 14.0185V14.0185Z" fill="#0600FF"/>
</g>
<defs>
<clipPath id="clip0_1_38">
<rect width="95" height="31" fill="white"/>
</clipPath>
</defs>
</svg>
