<svg xmlns="http://www.w3.org/2000/svg" xmlns:xlink="http://www.w3.org/1999/xlink" version="1.1" width="1000" height="1000" viewBox="0 0 1000 1000" xml:space="preserve">
<desc>Created with Fabric.js 3.5.0</desc>
<defs>
</defs>
<rect x="0" y="0" width="100%" height="100%" fill="#dfdad7"/>
<g transform="matrix(30.2433 0 0 30.2433 378.1768 416.9074)" id="180761">
<g style="" vector-effect="non-scaling-stroke">
		<g transform="matrix(1 0 0 1 0 -5)">
<rect style="stroke: none; stroke-width: 1; stroke-dasharray: none; stroke-linecap: butt; stroke-dashoffset: 0; stroke-linejoin: miter; stroke-miterlimit: 4; is-custom-font: none; font-file-url: none; fill: rgb(6,0,255); fill-rule: nonzero; opacity: 1;" x="-11" y="-2.5" rx="0" ry="0" width="22" height="5"/>
</g>
		<g transform="matrix(1 0 0 1 0 5)">
<rect style="stroke: none; stroke-width: 1; stroke-dasharray: none; stroke-linecap: butt; stroke-dashoffset: 0; stroke-linejoin: miter; stroke-miterlimit: 4; is-custom-font: none; font-file-url: none; fill: rgb(6,0,255); fill-rule: nonzero; opacity: 1;" x="-11" y="-2.5" rx="0" ry="0" width="22" height="5"/>
</g>
</g>
</g>
<g transform="matrix(30.5449 0 0 30.4608 609.6999 568.2046)" id="44268">
<g style="" vector-effect="non-scaling-stroke">
		<g transform="matrix(1 0 0 1 0 -5)">
<rect style="stroke: none; stroke-width: 1; stroke-dasharray: none; stroke-linecap: butt; stroke-dashoffset: 0; stroke-linejoin: miter; stroke-miterlimit: 4; is-custom-font: none; font-file-url: none; fill: rgb(6,0,255); fill-rule: nonzero; opacity: 1;" x="-11" y="-2.5" rx="0" ry="0" width="22" height="5"/>
</g>
		<g transform="matrix(1 0 0 1 0 5)">
<rect style="stroke: none; stroke-width: 1; stroke-dasharray: none; stroke-linecap: butt; stroke-dashoffset: 0; stroke-linejoin: miter; stroke-miterlimit: 4; is-custom-font: none; font-file-url: none; fill: rgb(6,0,255); fill-rule: nonzero; opacity: 1;" x="-11" y="-2.5" rx="0" ry="0" width="22" height="5"/>
</g>
</g>
</g>
</svg>